<?xml version="1.0" encoding="UTF-8"?>
<svg width="512" height="512" viewBox="0 0 512 512" fill="none" xmlns="http://www.w3.org/2000/svg">
  <!-- Background Circle -->
  <circle cx="256" cy="256" r="256" fill="url(#gradient)"/>
  
  <!-- Main P Letter -->
  <path d="M180 150 L180 380 L220 380 L220 280 L300 280 C340 280 370 250 370 210 C370 170 340 150 300 150 L180 150 Z M220 190 L300 190 C320 190 330 200 330 210 C330 220 320 240 300 240 L220 240 L220 190 Z" fill="white"/>
  
  <!-- Decorative Elements -->
  <circle cx="380" cy="180" r="15" fill="white" opacity="0.8"/>
  <circle cx="400" cy="220" r="8" fill="white" opacity="0.6"/>
  <circle cx="360" cy="240" r="6" fill="white" opacity="0.4"/>
  
  <!-- Gradient Definition -->
  <defs>
    <linearGradient id="gradient" x1="0%" y1="0%" x2="100%" y2="100%">
      <stop offset="0%" style="stop-color:#1DA1F2;stop-opacity:1" />
      <stop offset="50%" style="stop-color:#0084B4;stop-opacity:1" />
      <stop offset="100%" style="stop-color:#005580;stop-opacity:1" />
    </linearGradient>
  </defs>
</svg>